# xmcd
#
# Track frame offsets:
#	150
#	15250
#	30734
#	46296
#	60824
#	76038
#	90732
#	104666
#	116458
#	131770
#	145565
#	159711
#	176974
#	191151
#	203624
#	219887
#	232548
#	248747
#	263182
#	279459
#	295034
#
# Disc length: 4091 seconds
#
# Revision: 0
# Processed by: cddbd v1.5.2PL0 Copyright (c) Steve Scherf et al.
# Submitted via: EZCDAudioConverter 4.0.5.1
#
DISCID=140ff915
DTITLE=ERG Music - Nu Country Traxx Volume 241
DYEAR=2019
DGENRE=Country
TTITLE0=Luke Bryan - Knockin' Boots
TTITLE1=High Valley - Single Man
TTITLE2=Michael Ray - Her World Or Mine
TTITLE3=LoCash - One Big Country Song
TTITLE4=Carrie Underwood - Southbound
TTITLE5=Jordan Davis - Slow Dance In A Parking Lot\n
TTITLE6=LANco - Rival
TTITLE7=Lil Nas X ft. Billy Ray Cyrus - Old Town Road [Remix]
TTITLE8=Tucker Beathard - Better Than Me
TTITLE9=Brandon Ratcliff - Rules Of Breaking Up
TTITLE10=Maddie and Tae - Die From A Broken Heart
TTITLE11=Tenille Arts - Call You Names
TTITLE12=Adam Craig - If You're Lucky
TTITLE13=Southern Halo - Sunshine
TTITLE14=Heartland ft. Tracy Lawrence - I Loved Her First [2019 MIx]
TTITLE15=Brad Saunders - Headlights
TTITLE16=Kylie Bishop - For The Long Run
TTITLE17=Ashley McBryde - Girl Goin' Nowhere [Empowered Version]
TTITLE18=Kiefer Sutherland - Something You Love
TTITLE19=Nick Brennan - It's A Good Time (To Fall In Love)
TTITLE20=Bobby Wills\nBobby Wills - Raise The Bar
EXTD=
EXTT0=
EXTT1=
EXTT2=
EXTT3=
EXTT4=
EXTT5=
EXTT6=
EXTT7=
EXTT8=
EXTT9=
EXTT10=
EXTT11=
EXTT12=
EXTT13=
EXTT14=
EXTT15=
EXTT16=
EXTT17=
EXTT18=
EXTT19=
EXTT20=
PLAYORDER=
